<?xml version="1.0" encoding="UTF-8" standalone="no"?>
<!DOCTYPE svg PUBLIC "-//W3C//DTD SVG 1.1//EN" "http://www.w3.org/Graphics/SVG/1.1/DTD/svg11.dtd">
<svg width="100%" height="100%" viewBox="0 0 1182 1182" version="1.1" xmlns="http://www.w3.org/2000/svg" xmlns:xlink="http://www.w3.org/1999/xlink" xml:space="preserve" xmlns:serif="http://www.serif.com/" style="fill-rule:evenodd;clip-rule:evenodd;stroke-linejoin:round;stroke-miterlimit:2;">
    <g transform="matrix(1,0,0,1,-859.829,-1259.07)">
        <g transform="matrix(1,0,0,1,-855.183,-26.5876)">
            <g transform="matrix(0.92242,0,0,1,219.225,0)">
                <path d="M2656.55,1417.17C2656.55,1409.42 2656.85,1401.2 2658.1,1399.89C2685.24,1371.4 2752.43,1336.61 2759.3,1367.17C2765.72,1395.75 2773.08,1529.52 2774,1546.72L2656.55,1546.72L2656.55,1417.17Z" style="fill:rgb(75,177,228);"/>
            </g>
            <path d="M2669.81,1431.7C2669.81,1431.7 2736.19,1478.52 2777.86,1543.47C2779.55,1546.11 2750.03,1483.34 2669.94,1422.3C2669.22,1421.76 2669.81,1431.7 2669.81,1431.7Z" style="fill:rgb(65,152,195);"/>
        </g>
        <g transform="matrix(1,0,0,1,-855.183,-26.5876)">
            <path d="M2332.36,2263.51C2332.36,2263.51 2140.65,2420.54 1950.46,2440.01C1946.21,2440.45 2035.54,2346.08 2069.82,2216.61C2071.84,2214.23 2248.24,2106.88 2332.36,2263.51Z" style="fill:rgb(75,177,228);"/>
        </g>
        <g transform="matrix(0.975869,0,0,0.975869,43.7243,39.3445)">
            <ellipse cx="1441.44" cy="1764.6" rx="564.7" ry="487.315" style="fill:rgb(75,177,228);"/>
        </g>
        <g transform="matrix(1,0,0,1,-3.54174,-0.867853)">
            <path d="M1818.04,1761.38C1818.04,1725.77 1803.89,1691.62 1778.72,1666.45C1753.54,1641.27 1719.39,1627.13 1683.79,1627.13L1224.62,1627.13C1150.17,1627.13 1089.81,1687.49 1089.81,1761.95L1089.81,1762.33C1089.81,1836.89 1150.25,1897.34 1224.82,1897.34L1683.4,1897.34C1757.76,1897.34 1818.04,1837.06 1818.04,1762.7L1818.04,1761.38Z" style="fill:rgb(241,248,242);"/>
        </g>
        <g transform="matrix(1,0,0,1,-38.1973,-27.0055)">
            <circle cx="1616.49" cy="1788.37" r="59.036" style="fill:rgb(31,85,166);"/>
        </g>
        <g transform="matrix(0.998278,0,0,1.97611,51.7945,-1689.76)">
            <path d="M1332.16,1746.39C1332.16,1738.16 1318.95,1731.48 1302.65,1731.48L1243.28,1731.48C1226.96,1731.48 1213.73,1738.16 1213.73,1746.41C1213.73,1746.44 1213.73,1746.47 1213.73,1746.49C1213.73,1754.71 1226.91,1761.37 1243.16,1761.37L1302.62,1761.37C1310.46,1761.37 1317.97,1759.79 1323.51,1756.99C1329.05,1754.19 1332.16,1750.4 1332.16,1746.44C1332.16,1746.42 1332.16,1746.41 1332.16,1746.39Z" style="fill:rgb(31,85,166);"/>
        </g>
    </g>
</svg>
