<svg id="visual" viewBox="0 0 1920 1080" width="1920" height="1080" xmlns="http://www.w3.org/2000/svg" xmlns:xlink="http://www.w3.org/1999/xlink" version="1.1"><path d="M0 169L45.7 206.5C91.3 244 182.7 319 274.2 363.2C365.7 407.3 457.3 420.7 548.8 405.3C640.3 390 731.7 346 823 307.8C914.3 269.7 1005.7 237.3 1097 234.5C1188.3 231.7 1279.7 258.3 1371.2 293.7C1462.7 329 1554.3 373 1645.8 380.5C1737.3 388 1828.7 359 1874.3 344.5L1920 330L1920 0L1874.3 0C1828.7 0 1737.3 0 1645.8 0C1554.3 0 1462.7 0 1371.2 0C1279.7 0 1188.3 0 1097 0C1005.7 0 914.3 0 823 0C731.7 0 640.3 0 548.8 0C457.3 0 365.7 0 274.2 0C182.7 0 91.3 0 45.7 0L0 0Z" fill="#9c89fb"></path><path d="M0 290L45.7 263.5C91.3 237 182.7 184 274.2 172C365.7 160 457.3 189 548.8 208.3C640.3 227.7 731.7 237.3 823 239.7C914.3 242 1005.7 237 1097 218.3C1188.3 199.7 1279.7 167.3 1371.2 164C1462.7 160.7 1554.3 186.3 1645.8 212.5C1737.3 238.7 1828.7 265.3 1874.3 278.7L1920 292L1920 0L1874.3 0C1828.7 0 1737.3 0 1645.8 0C1554.3 0 1462.7 0 1371.2 0C1279.7 0 1188.3 0 1097 0C1005.7 0 914.3 0 823 0C731.7 0 640.3 0 548.8 0C457.3 0 365.7 0 274.2 0C182.7 0 91.3 0 45.7 0L0 0Z" fill="#7a60f5"></path><path d="M0 169L45.7 161.8C91.3 154.7 182.7 140.3 274.2 127.2C365.7 114 457.3 102 548.8 91.5C640.3 81 731.7 72 823 75.7C914.3 79.3 1005.7 95.7 1097 115.3C1188.3 135 1279.7 158 1371.2 154.7C1462.7 151.3 1554.3 121.7 1645.8 115C1737.3 108.3 1828.7 124.7 1874.3 132.8L1920 141L1920 0L1874.3 0C1828.7 0 1737.3 0 1645.8 0C1554.3 0 1462.7 0 1371.2 0C1279.7 0 1188.3 0 1097 0C1005.7 0 914.3 0 823 0C731.7 0 640.3 0 548.8 0C457.3 0 365.7 0 274.2 0C182.7 0 91.3 0 45.7 0L0 0Z" fill="#5333ed"></path></svg>