<svg id="visual" viewBox="0 0 960 300" width="960" height="300" xmlns="http://www.w3.org/2000/svg" xmlns:xlink="http://www.w3.org/1999/xlink" version="1.1"><path d="M0 234L22.8 222.8C45.7 211.7 91.3 189.3 137 179.7C182.7 170 228.3 173 274 171.7C319.7 170.3 365.3 164.7 411.2 168.3C457 172 503 185 548.8 195.3C594.7 205.7 640.3 213.3 686 207.7C731.7 202 777.3 183 823 175.3C868.7 167.7 914.3 171.3 937.2 173.2L960 175L960 0L937.2 0C914.3 0 868.7 0 823 0C777.3 0 731.7 0 686 0C640.3 0 594.7 0 548.8 0C503 0 457 0 411.2 0C365.3 0 319.7 0 274 0C228.3 0 182.7 0 137 0C91.3 0 45.7 0 22.8 0L0 0Z" fill="#9c89fb"></path><path d="M0 146L22.8 144C45.7 142 91.3 138 137 136.7C182.7 135.3 228.3 136.7 274 141.2C319.7 145.7 365.3 153.3 411.2 151C457 148.7 503 136.3 548.8 127.7C594.7 119 640.3 114 686 114C731.7 114 777.3 119 823 127.8C868.7 136.7 914.3 149.3 937.2 155.7L960 162L960 0L937.2 0C914.3 0 868.7 0 823 0C777.3 0 731.7 0 686 0C640.3 0 594.7 0 548.8 0C503 0 457 0 411.2 0C365.3 0 319.7 0 274 0C228.3 0 182.7 0 137 0C91.3 0 45.7 0 22.8 0L0 0Z" fill="#866ef7"></path><path d="M0 100L22.8 105.2C45.7 110.3 91.3 120.7 137 120.7C182.7 120.7 228.3 110.3 274 112C319.7 113.7 365.3 127.3 411.2 126.5C457 125.7 503 110.3 548.8 107.3C594.7 104.3 640.3 113.7 686 112.3C731.7 111 777.3 99 823 91.2C868.7 83.3 914.3 79.7 937.2 77.8L960 76L960 0L937.2 0C914.3 0 868.7 0 823 0C777.3 0 731.7 0 686 0C640.3 0 594.7 0 548.8 0C503 0 457 0 411.2 0C365.3 0 319.7 0 274 0C228.3 0 182.7 0 137 0C91.3 0 45.7 0 22.8 0L0 0Z" fill="#6e52f3"></path><path d="M0 45L22.8 43.3C45.7 41.7 91.3 38.3 137 45.2C182.7 52 228.3 69 274 75.8C319.7 82.7 365.3 79.3 411.2 79.3C457 79.3 503 82.7 548.8 78.5C594.7 74.3 640.3 62.7 686 58.3C731.7 54 777.3 57 823 54C868.7 51 914.3 42 937.2 37.5L960 33L960 0L937.2 0C914.3 0 868.7 0 823 0C777.3 0 731.7 0 686 0C640.3 0 594.7 0 548.8 0C503 0 457 0 411.2 0C365.3 0 319.7 0 274 0C228.3 0 182.7 0 137 0C91.3 0 45.7 0 22.8 0L0 0Z" fill="#5333ed"></path></svg>