<svg width="1600" height="343" viewBox="0 0 1600 343" fill="none" xmlns="http://www.w3.org/2000/svg">
<path d="M0 140.833L38.1071 172.083C76.1309 203.333 152.345 265.833 228.643 302.667C304.94 339.417 381.321 350.583 457.619 337.75C533.917 325 610.131 288.333 686.262 256.5C762.393 224.75 838.607 197.75 914.738 195.417C990.869 193.083 1067.08 215.25 1143.38 244.75C1219.68 274.167 1296.06 310.833 1372.36 317.083C1448.65 323.333 1524.87 299.167 1562.89 287.083L1601 275V0H1562.89C1524.87 0 1448.65 0 1372.36 0C1296.06 0 1219.68 0 1143.38 0C1067.08 0 990.869 0 914.738 0C838.607 0 762.393 0 686.262 0C610.131 0 533.917 0 457.619 0C381.321 0 304.94 0 228.643 0C152.345 0 76.1309 0 38.1071 0H0V140.833Z" fill="#9C89FB"/>
<path d="M0 241.667L38.1071 219.583C76.1309 197.5 152.345 153.333 228.643 143.333C304.94 133.333 381.321 157.5 457.619 173.583C533.917 189.75 610.131 197.75 686.262 199.75C762.393 201.667 838.607 197.5 914.738 181.917C990.869 166.417 1067.08 139.417 1143.38 136.667C1219.68 133.917 1296.06 155.25 1372.36 177.083C1448.65 198.917 1524.87 221.083 1562.89 232.25L1601 243.333V0H1562.89C1524.87 0 1448.65 0 1372.36 0C1296.06 0 1219.68 0 1143.38 0C1067.08 0 990.869 0 914.738 0C838.607 0 762.393 0 686.262 0C610.131 0 533.917 0 457.619 0C381.321 0 304.94 0 228.643 0C152.345 0 76.1309 0 38.1071 0H0V241.667Z" fill="#7A60F5"/>
<path d="M0 140.833L38.1071 134.833C76.1309 128.917 152.345 116.917 228.643 106C304.94 95 381.321 85 457.619 76.25C533.917 67.5 610.131 60 686.262 63.0833C762.393 66.0833 838.607 79.75 914.738 96.0833C990.869 112.5 1067.08 131.667 1143.38 128.917C1219.68 126.083 1296.06 101.417 1372.36 95.8333C1448.65 90.25 1524.87 103.917 1562.89 110.667L1601 117.5V0H1562.89C1524.87 0 1448.65 0 1372.36 0C1296.06 0 1219.68 0 1143.38 0C1067.08 0 990.869 0 914.738 0C838.607 0 762.393 0 686.262 0C610.131 0 533.917 0 457.619 0C381.321 0 304.94 0 228.643 0C152.345 0 76.1309 0 38.1071 0H0V140.833Z" fill="#5333ED"/>
</svg>
